# Blender v2.91.0 OBJ File: 'escaperoom_books.blend'
# www.blender.org
mtllib book2_purple_hieroglyph.mtl
o Kaft.005_Cube.009
v -1.041198 -0.100003 0.475765
v -1.041198 0.099997 0.475765
v -1.041198 -0.100003 -0.324235
v -1.041198 0.099997 -0.324235
v -0.541198 -0.100003 0.475765
v -0.541198 0.099997 0.475765
v -0.541198 -0.100003 -0.324235
v -0.541198 0.099997 -0.324235
v -1.014676 -0.080746 -0.324235
v -1.014676 -0.080746 0.475765
v -1.014676 0.079254 0.475765
v -1.014676 0.079254 -0.324235
v -0.541198 -0.080746 -0.324235
v -0.541198 -0.080746 0.475765
v -0.541198 0.079254 -0.324235
v -0.541198 0.079254 0.475765
vt 0.625000 0.000000
vt 0.375000 0.250000
vt 0.375000 0.000000
vt 0.375000 0.500000
vt 0.125000 0.750000
vt 0.125000 0.500000
vt 0.875000 0.500000
vt 0.625000 0.750000
vt 0.625000 0.500000
vt 0.625000 0.225245
vt 0.375000 0.025245
vt 0.375000 0.225245
vt 0.125000 0.524755
vt 0.361739 0.724755
vt 0.361739 0.524755
vt 0.875000 0.724755
vt 0.638261 0.524755
vt 0.638261 0.724755
vt 0.599071 0.263261
vt 0.399071 0.263261
vt 0.599071 0.750000
vt 0.599071 0.500000
vt 0.375000 0.750000
vt 0.399071 0.500000
vt 0.399071 0.750000
vt 0.625000 1.000000
vt 0.375000 1.000000
vt 0.599071 0.986739
vt 0.625000 0.250000
vt 0.875000 0.750000
vt 0.625000 0.025245
vt 0.125000 0.724755
vt 0.875000 0.524755
vt 0.399071 0.986739
vn -1.0000 0.0000 0.0000
vn 0.0000 -1.0000 0.0000
vn 0.0000 1.0000 0.0000
vn 1.0000 0.0000 0.0000
vn 0.0000 0.0000 -1.0000
vn -0.0000 0.0000 1.0000
usemtl Material.001
s off
f 2/1/1 3/2/1 1/3/1
f 7/4/2 1/5/2 3/6/2
f 4/7/3 6/8/3 8/9/3
f 12/10/4 10/11/4 9/12/4
f 9/13/3 14/14/3 13/15/3
f 11/16/2 15/17/2 16/18/2
f 12/19/5 9/20/5 3/2/5
f 8/9/4 16/21/4 15/22/4
f 5/23/4 13/24/4 14/25/4
f 2/26/6 1/27/6 11/28/6
f 2/1/1 4/29/1 3/2/1
f 7/4/2 5/23/2 1/5/2
f 4/7/3 2/30/3 6/8/3
f 12/10/4 11/31/4 10/11/4
f 9/13/3 10/32/3 14/14/3
f 11/16/2 12/33/2 15/17/2
f 9/20/5 13/24/5 7/4/5
f 4/29/5 8/9/5 12/19/5
f 8/9/5 15/22/5 12/19/5
f 9/20/5 7/4/5 3/2/5
f 4/29/5 12/19/5 3/2/5
f 8/9/4 6/8/4 16/21/4
f 5/23/4 7/4/4 13/24/4
f 11/28/6 16/21/6 6/8/6
f 1/27/6 5/23/6 10/34/6
f 5/23/6 14/25/6 10/34/6
f 11/28/6 6/8/6 2/26/6
f 1/27/6 10/34/6 11/28/6
o Inhoud.005_Cube.010
v -1.004839 -0.080746 0.455568
v -1.004839 0.079254 0.455568
v -1.004839 -0.080746 -0.304432
v -1.004839 0.079254 -0.304432
v -0.554839 -0.080746 0.455568
v -0.554839 0.079254 0.455568
v -0.554839 -0.080746 -0.304432
v -0.554839 0.079254 -0.304432
vt 0.625000 0.000000
vt 0.375000 0.250000
vt 0.375000 0.000000
vt 0.625000 0.250000
vt 0.375000 0.500000
vt 0.625000 0.500000
vt 0.375000 0.750000
vt 0.625000 0.750000
vt 0.375000 1.000000
vt 0.125000 0.750000
vt 0.125000 0.500000
vt 0.875000 0.500000
vt 0.625000 1.000000
vt 0.875000 0.750000
vn -1.0000 0.0000 0.0000
vn 0.0000 0.0000 -1.0000
vn 1.0000 0.0000 0.0000
vn 0.0000 0.0000 1.0000
vn 0.0000 -1.0000 0.0000
vn 0.0000 1.0000 0.0000
usemtl None
s off
f 18/35/7 19/36/7 17/37/7
f 20/38/8 23/39/8 19/36/8
f 24/40/9 21/41/9 23/39/9
f 22/42/10 17/43/10 21/41/10
f 23/39/11 17/44/11 19/45/11
f 20/46/12 22/42/12 24/40/12
f 18/35/7 20/38/7 19/36/7
f 20/38/8 24/40/8 23/39/8
f 24/40/9 22/42/9 21/41/9
f 22/42/10 18/47/10 17/43/10
f 23/39/11 21/41/11 17/44/11
f 20/46/12 18/48/12 22/42/12
o Oud-Egyptisch
v -0.934578 0.112283 -0.055322
v -0.652466 0.112283 -0.055322
v -0.934578 0.112283 -0.173299
v -0.652466 0.112283 -0.173299
vt 1.000000 0.000000
vt 0.000000 1.000000
vt 0.000000 0.000000
vt 1.000000 1.000000
vn 0.0000 1.0000 0.0000
usemtl Oud-Egyptisch
s off
f 26/49/13 27/50/13 25/51/13
f 26/49/13 28/52/13 27/50/13
